<svg version="1.1" id="Layer_1" xmlns="http://www.w3.org/2000/svg" xmlns:xlink="http://www.w3.org/1999/xlink" x="0px" y="0px" viewBox="0 0 36 36" style="enable-background:new 0 0 512.001 512.001;" xml:space="preserve" width="36" height="36"><path style="fill:#08AA6E;" points="111.357,131.207 111.357,176.743 129.657,176.743 151.549,504.411 347.028,504.411 
	368.918,176.743 387.219,176.743 387.219,131.207 " d="M7.83 9.225L7.83 12.427L9.116 12.427L10.656 35.466L24.4 35.466L25.939 12.427L27.226 12.427L27.226 9.225Z"/><path style="fill:#2BA5B1;" d="M28.704 2.312H20.742c-1.282 0 -2.325 1.043 -2.325 2.325v4.588h-1.779V4.638c0 -2.267 1.837 -4.104 4.104 -4.104h7.961"/><path style="fill:#FFE285;" points="235.762,245.685 189.218,245.685 189.218,415.231 352.639,415.231 363.308,245.685 
	256.001,245.685 " d="M16.577 17.275L13.304 17.275L13.304 29.196L24.795 29.196L25.545 17.275L18 17.275"/><path style="fill:#53180F;" d="M20.742 1.067h7.961V0H20.742c-2.557 0 -4.638 2.08 -4.638 4.638v4.054h-8.809v4.269h1.321l1.539 23.039h14.743l1.539 -23.039h1.321v-4.269H18.951V4.638c0 -0.988 0.804 -1.792 1.792 -1.792h7.961V1.779H20.742c-1.576 0 -2.859 1.282 -2.859 2.859v4.054h-0.711V4.638c0 -1.969 1.602 -3.57 3.57 -3.57zm-1.791 8.692H26.693v2.135H23.556v1.067h1.813l-0.253 3.78H18v1.067h6.977l-0.683 10.854H13.838V17.808h2.739v-1.067h-3.806v12.989h11.478l-0.348 5.203h-12.746L9.687 12.961h1.815v-1.067H8.363v-2.135h10.588z"/></svg>